# xmcd CD database file
#
# Track frame offsets:
#	150
#	900
#	1650
#	2400
#	3150
#	3900
#	4650
#	5400
#	6150
#	6900
#	7650
#	8400
#	9150
#	221890
#
# Disc length: 4440 seconds
#
# Revision: 0
# Processed by: cddbd v1.5.2PL0 Copyright (c) Steve Scherf et al.
# Submitted via: CDex 1.51
#
DISCID=6511560e
DTITLE=Michelle - Rouge
DYEAR=1900
DGENRE=Schlager
TTITLE0=Ich Hatte Nie Den Mut
TTITLE1=Das Hotel In St. Germain
TTITLE2=Unter Dem Regenbogen
TTITLE3=Hast Du Lust
TTITLE4=Einsam Ohne Dich
TTITLE5=Wind Und Sturm
TTITLE6=Nur An Dich Gedacht
TTITLE7=Trag' Mich Heute Nacht Zu Den Sternen
TTITLE8=Ich Tanz' Auch Allein
TTITLE9=Wenn Der Regen Wieder Faellt
TTITLE10=Bringst Du Mich Heute Nacht Nach Hause
TTITLE11=Ans Ende Der Welt
TTITLE12=Das Lachen Eines Kindes
TTITLE13=nicht kopieren
EXTD=
EXTT0=
EXTT1=
EXTT2=
EXTT3=
EXTT4=
EXTT5=
EXTT6=
EXTT7=
EXTT8=
EXTT9=
EXTT10=
EXTT11=
EXTT12=
EXTT13=
PLAYORDER=
